# xmcd
#
# Track frame offsets:
#	150
#	4141
#	14753
#	31415
#
# Disc length: 670
#
# Revision: 1
# Processed by: cddbd v1.5.1PL0 Copyright (c) Steve Scherf et al.
# Submitted via: dBpowerAMP V4.0
# Normalized: r0:TRMNUM
#
DISCID=29029c04
DTITLE=Zero Positivo - La Puta Promo
DYEAR=2003
DGENRE=Hip-Hop
TTITLE0=Intro
TTITLE1=Ponle nombre
TTITLE2=Mas alla 
TTITLE3=Historia de una carta
EXTD=ripped by \tel_hoop\t
EXTT0=
EXTT1=
EXTT2=
EXTT3=
PLAYORDER=
